<?xml version="1.0" standalone="no"?>
<!DOCTYPE svg PUBLIC "-//W3C//DTD SVG 20010904//EN"
 "http://www.w3.org/TR/2001/REC-SVG-20010904/DTD/svg10.dtd">
<svg version="1.0" xmlns="http://www.w3.org/2000/svg"
 width="1220.000000pt" height="266.000000pt" viewBox="0 0 1220.000000 266.000000"
 preserveAspectRatio="xMidYMid meet">
<metadata>
Created by potrace 1.16, written by Peter Selinger 2001-2019
</metadata>
<g transform="translate(0.000000,266.000000) scale(0.100000,-0.100000)"
fill="#000000" stroke="none">
<path d="M1170 2634 c-14 -2 -59 -9 -100 -15 -243 -36 -537 -190 -708 -373
-200 -215 -312 -461 -343 -756 -18 -171 10 -379 72 -546 12 -31 23 -54 25 -51
2 2 -8 48 -22 103 -32 121 -43 344 -25 476 14 96 66 259 112 350 126 250 349
457 601 557 328 131 704 105 993 -70 l50 -30 0 -82 c1 -64 6 -91 22 -123 57
-108 130 -156 248 -162 104 -6 166 19 229 89 133 148 86 379 -94 462 -55 25
-167 28 -220 5 -34 -15 -37 -14 -130 33 -181 91 -338 130 -545 134 -77 2 -151
2 -165 -1z m1003 -368 c33 -31 43 -68 27 -107 -27 -64 -97 -79 -151 -31 -24
22 -31 36 -31 66 0 83 96 127 155 72z"/>
<path d="M1045 2150 c-289 -73 -523 -303 -607 -598 -29 -101 -32 -322 -5 -421
42 -153 99 -258 201 -368 114 -122 224 -191 383 -239 77 -24 106 -27 228 -28
166 0 237 15 370 78 101 48 227 142 250 186 46 89 -15 187 -111 177 -32 -3
-58 -17 -111 -61 -202 -163 -455 -190 -676 -74 -81 43 -202 164 -245 245 -163
309 -34 689 283 833 83 38 155 53 250 52 147 0 287 -54 400 -153 51 -45 61
-49 107 -49 44 0 54 4 84 34 29 29 34 41 34 80 0 39 -6 52 -37 87 -74 82 -215
166 -348 209 -103 33 -337 38 -450 10z"/>
<path d="M3800 2045 c-153 -43 -253 -166 -281 -345 -39 -255 73 -479 268 -536
78 -23 238 -15 314 14 75 30 139 85 139 121 0 55 -37 65 -91 25 -150 -114
-347 -104 -444 24 -51 66 -69 136 -69 262 1 84 5 117 24 164 44 114 125 175
242 184 85 6 142 -10 220 -60 62 -40 93 -45 111 -17 27 44 -36 110 -143 150
-74 28 -215 35 -290 14z"/>
<path d="M10292 2044 l-22 -15 0 -420 c0 -271 4 -427 10 -440 12 -22 62 -26
79 -6 7 9 12 118 13 333 l3 318 129 -244 c71 -135 138 -255 149 -267 26 -30
61 -29 84 0 10 13 74 132 143 264 l125 241 5 -317 c3 -174 9 -322 13 -328 11
-17 62 -16 76 1 8 9 10 135 9 447 l-3 434 -28 9 c-22 8 -31 6 -47 -9 -10 -11
-87 -153 -171 -315 -83 -162 -154 -298 -158 -302 -3 -4 -77 130 -164 298 -87
167 -168 311 -180 319 -27 19 -37 19 -65 -1z"/>
<path d="M12072 2034 c-16 -11 -22 -25 -22 -54 0 -29 6 -43 22 -54 53 -37 118
-5 118 58 0 40 -28 66 -70 66 -14 0 -36 -7 -48 -16z"/>
<path d="M7977 1952 c-13 -14 -17 -38 -17 -95 l0 -77 -37 0 c-46 0 -87 -19
-91 -43 -6 -32 17 -47 73 -47 l53 0 4 -202 c3 -217 8 -237 60 -284 36 -33 62
-44 127 -50 83 -9 111 -1 111 34 0 37 -17 52 -58 52 -47 0 -97 26 -113 58 -9
19 -14 82 -17 210 l-4 182 85 0 c93 0 114 11 103 54 -7 29 -30 36 -118 36
l-68 0 0 83 c0 51 -5 88 -12 95 -18 18 -63 14 -81 -6z"/>
<path d="M4543 1774 c-60 -22 -126 -84 -154 -146 -20 -45 -23 -70 -24 -158 0
-89 4 -113 23 -155 50 -108 124 -156 250 -163 100 -5 155 12 218 70 67 62 89
123 89 248 -1 88 -4 113 -24 158 -30 67 -97 127 -164 147 -63 19 -159 18 -214
-1z m170 -88 c83 -30 121 -98 120 -216 0 -112 -38 -185 -110 -216 -72 -31
-168 -4 -210 59 -61 90 -47 277 25 340 23 21 87 46 117 46 11 0 37 -6 58 -13z"/>
<path d="M5136 1774 c-14 -13 -16 -55 -16 -308 0 -214 3 -295 12 -304 16 -16
70 -16 86 0 8 8 12 67 12 197 1 233 14 277 95 318 43 23 130 21 163 -4 51 -37
56 -61 60 -288 2 -121 8 -215 14 -222 6 -7 25 -13 44 -13 53 0 56 15 52 263
-3 202 -5 226 -25 269 -30 65 -83 99 -168 105 -83 7 -143 -10 -195 -54 l-40
-35 0 31 c0 36 -23 61 -55 61 -13 0 -31 -7 -39 -16z"/>
<path d="M5877 1772 c-15 -16 -17 -52 -17 -305 0 -246 2 -288 16 -301 19 -19
67 -21 82 -3 6 7 12 93 14 207 3 191 4 196 30 241 43 74 136 104 216 70 61
-25 67 -51 70 -291 2 -130 8 -220 14 -227 13 -16 70 -17 86 -1 15 15 17 426 2
479 -14 52 -49 100 -90 123 -28 17 -52 21 -120 21 -94 0 -150 -21 -189 -71
l-21 -27 0 41 c0 31 -5 44 -19 52 -29 15 -56 12 -74 -8z"/>
<path d="M6760 1775 c-63 -20 -124 -75 -156 -142 -37 -75 -45 -203 -19 -288
25 -79 89 -147 163 -175 105 -40 300 -12 357 50 20 22 16 69 -7 83 -12 8 -32
3 -82 -23 -147 -74 -283 -35 -321 93 -25 83 -40 77 200 77 208 0 215 1 226 21
12 22 6 85 -14 153 -16 56 -88 131 -144 150 -56 19 -142 20 -203 1z m190 -98
c40 -26 65 -67 74 -119 l7 -38 -171 0 c-170 0 -170 0 -170 23 1 56 54 129 110
150 39 15 118 7 150 -16z"/>
<path d="M7459 1777 c-137 -51 -207 -170 -197 -336 11 -179 106 -280 274 -289
136 -7 244 43 244 113 0 50 -26 53 -107 9 -62 -33 -73 -36 -126 -31 -112 10
-166 82 -167 220 0 151 62 227 187 227 46 0 68 -6 108 -30 64 -38 92 -39 101
-3 18 68 -69 125 -199 130 -52 2 -95 -2 -118 -10z"/>
<path d="M8530 1773 c-64 -23 -141 -104 -163 -172 -19 -60 -23 -195 -7 -253
18 -62 71 -128 129 -161 45 -26 68 -31 137 -35 144 -8 280 50 272 115 -6 48
-30 51 -109 13 -90 -44 -182 -49 -239 -13 -42 26 -77 83 -86 141 l-6 42 218 2
219 3 3 58 c8 162 -100 278 -258 276 -36 0 -85 -8 -110 -16z m190 -91 c41 -20
80 -83 80 -129 l0 -33 -171 0 c-166 0 -170 1 -165 20 3 11 9 30 12 43 10 36
54 88 88 103 43 19 115 17 156 -4z"/>
<path d="M11481 1773 c-116 -41 -189 -177 -178 -333 12 -183 105 -279 278
-288 72 -4 93 -1 137 18 118 51 179 169 170 327 -11 186 -121 294 -297 292
-36 0 -86 -8 -110 -16z m204 -102 c94 -54 123 -253 53 -357 -58 -86 -196 -98
-265 -23 -78 85 -75 292 5 362 53 48 144 55 207 18z"/>
<path d="M12076 1768 c-14 -19 -16 -65 -16 -298 0 -233 2 -279 16 -298 17 -24
62 -30 82 -10 17 17 17 599 0 616 -20 20 -65 14 -82 -10z"/>
<path d="M2384 1765 c4 -11 19 -69 34 -130 21 -93 25 -134 25 -260 0 -203 -30
-338 -113 -510 -179 -369 -526 -613 -935 -655 -214 -22 -455 30 -650 141 l-71
40 4 64 c6 84 -17 151 -73 213 -64 71 -126 96 -230 90 -48 -3 -93 -11 -112
-21 -169 -89 -215 -311 -92 -451 62 -70 127 -100 219 -100 50 0 85 5 105 16
29 16 32 15 119 -29 372 -187 804 -190 1171 -8 564 279 834 922 639 1520 -14
44 -31 85 -36 90 -8 7 -9 4 -4 -10z m-1934 -1222 c39 -37 47 -78 21 -120 -24
-38 -72 -55 -114 -40 -39 13 -69 63 -62 102 7 40 57 85 95 85 18 0 41 -10 60
-27z"/>
<path d="M9046 1767 c-12 -9 -17 -23 -14 -42 l3 -30 187 -5 187 -5 -190 -228
c-198 -238 -211 -261 -167 -291 19 -13 61 -16 253 -16 255 0 269 3 263 55 l-3
30 -193 5 -193 5 191 228 c128 154 190 237 190 252 0 50 -25 55 -270 55 -170
0 -231 -3 -244 -13z"/>
<path d="M1144 1604 c-61 -22 -119 -77 -151 -142 -39 -79 -39 -183 -1 -257 55
-104 145 -159 263 -159 113 1 197 49 251 146 26 48 29 62 29 143 0 73 -4 98
-22 130 -26 48 -85 106 -133 131 -48 24 -181 29 -236 8z"/>
<path d="M9692 1528 c-17 -17 -15 -65 4 -72 9 -3 89 -6 178 -6 170 0 186 4
186 45 0 41 -16 45 -190 45 -116 0 -170 -4 -178 -12z"/>
<path d="M3541 708 c-35 -79 -65 -149 -68 -155 -3 -7 2 -13 10 -13 9 0 34 46
68 125 30 69 56 125 59 125 3 0 30 -56 60 -125 31 -71 60 -125 68 -125 8 0 11
7 8 18 -15 47 -126 287 -134 290 -5 1 -37 -62 -71 -140z"/>
<path d="M3836 843 c-3 -3 -6 -73 -6 -155 0 -123 2 -148 15 -148 12 0 15 23
17 121 l3 121 90 -126 c50 -69 93 -126 98 -126 4 0 7 72 7 160 0 194 -18 220
-22 33 l-3 -128 -88 122 c-91 126 -100 137 -111 126z"/>
<path d="M4233 752 c-23 -53 -53 -123 -68 -155 -22 -50 -23 -58 -9 -55 11 2
37 48 72 130 l55 128 57 -128 c35 -78 63 -128 73 -130 12 -2 1 31 -45 135 -70
160 -76 173 -86 173 -4 0 -26 -44 -49 -98z"/>
<path d="M5093 835 c-39 -17 -58 -53 -49 -90 5 -21 23 -34 92 -65 46 -22 87
-47 91 -56 9 -24 -40 -64 -78 -64 -40 0 -85 24 -92 50 -6 25 -27 27 -27 3 1
-44 49 -73 118 -73 65 0 102 27 102 75 0 41 -26 63 -109 94 -76 28 -92 51 -57
86 15 15 37 25 54 25 33 0 82 -34 82 -56 0 -8 5 -14 10 -14 19 0 10 46 -12 67
-31 29 -85 36 -125 18z"/>
<path d="M5347 843 c-4 -3 -7 -73 -7 -155 l0 -148 115 0 c70 0 115 4 115 10 0
6 -40 10 -100 10 l-100 0 0 60 0 60 75 0 c43 0 75 4 75 10 0 6 -32 10 -75 10
l-75 0 0 60 0 60 100 0 c82 0 100 3 100 15 0 12 -19 15 -108 15 -60 0 -112 -3
-115 -7z"/>
<path d="M5670 696 c0 -97 4 -156 10 -156 6 0 10 30 10 70 l0 70 55 0 c67 0
95 -23 115 -95 8 -27 18 -45 27 -45 19 0 11 36 -22 103 -13 26 -20 47 -15 47
21 0 50 41 50 69 0 17 -10 42 -24 57 -21 26 -30 28 -115 32 l-91 4 0 -156z
m188 99 c42 -53 -6 -95 -108 -95 l-60 0 0 60 0 60 74 0 c68 0 76 -2 94 -25z"/>
<path d="M6467 843 c-4 -3 -7 -73 -7 -155 l0 -148 84 0 c78 0 86 2 114 28 77
72 58 230 -33 268 -35 14 -146 20 -158 7z m161 -39 c71 -50 67 -190 -7 -228
-16 -9 -53 -16 -81 -16 l-50 0 0 130 0 130 58 0 c36 0 66 -6 80 -16z"/>
<path d="M6807 843 c-4 -3 -7 -73 -7 -155 l0 -148 115 0 c70 0 115 4 115 10 0
6 -40 10 -100 10 l-100 0 0 60 0 60 75 0 c43 0 75 4 75 10 0 6 -32 10 -75 10
l-75 0 0 60 0 60 100 0 c82 0 100 3 100 15 0 12 -19 15 -108 15 -60 0 -112 -3
-115 -7z"/>
<path d="M7090 842 c0 -14 127 -293 138 -304 8 -8 17 1 30 33 11 24 40 92 66
150 48 111 54 133 34 127 -6 -2 -36 -61 -66 -131 -31 -69 -58 -124 -62 -122
-3 2 -30 60 -60 129 -30 69 -61 126 -67 126 -7 0 -13 -4 -13 -8z"/>
<path d="M7450 695 l0 -155 115 0 c70 0 115 4 115 10 0 6 -42 10 -105 10
l-105 0 0 60 0 60 75 0 c43 0 75 4 75 10 0 6 -32 10 -75 10 l-75 0 0 60 0 60
106 0 c80 0 105 3 102 13 -3 8 -38 13 -116 15 l-112 3 0 -156z"/>
<path d="M8111 833 c-50 -26 -74 -64 -79 -126 -8 -101 47 -167 139 -167 80 0
129 57 129 152 0 114 -99 188 -189 141z m118 -39 c81 -68 54 -205 -46 -230
-77 -20 -152 83 -123 170 26 80 110 110 169 60z"/>
<path d="M8407 843 c-4 -3 -7 -75 -7 -160 0 -129 2 -153 15 -153 12 0 15 15
15 75 l0 75 76 0 c70 0 78 2 105 29 33 33 35 50 14 91 -10 20 -27 32 -53 39
-41 12 -155 15 -165 4z m183 -43 c50 -50 2 -100 -96 -100 l-64 0 0 60 0 60 70
0 c57 0 74 -4 90 -20z"/>
<path d="M8737 843 c-11 -11 -8 -313 3 -313 6 0 10 32 10 75 l0 75 80 0 c73 0
83 3 105 25 47 46 25 116 -43 135 -41 11 -145 14 -155 3z m171 -39 c22 -15 29
-49 14 -70 -15 -23 -52 -34 -111 -34 l-61 0 0 60 0 60 68 0 c45 0 75 -5 90
-16z"/>
<path d="M9057 843 c-4 -3 -7 -73 -7 -155 l0 -148 115 0 c70 0 115 4 115 10 0
6 -42 10 -105 10 l-105 0 0 60 0 60 75 0 c43 0 75 4 75 10 0 6 -32 10 -75 10
l-75 0 0 60 0 60 100 0 c82 0 100 3 100 15 0 12 -18 15 -103 15 -57 0 -107 -3
-110 -7z"/>
<path d="M9377 843 c-4 -3 -7 -73 -7 -155 0 -125 2 -148 15 -148 12 0 15 14
15 70 l0 70 54 0 c62 0 82 -17 112 -96 9 -24 23 -44 31 -44 17 0 12 23 -22 94
-24 50 -24 50 -4 64 51 35 41 114 -17 138 -34 14 -165 20 -177 7z m183 -43
c50 -50 2 -100 -96 -100 l-64 0 0 60 0 60 70 0 c57 0 74 -4 90 -20z"/>
<path d="M10240 843 c-101 -41 -131 -179 -56 -261 28 -30 40 -36 87 -39 42 -3
61 0 87 17 33 20 50 46 38 57 -3 4 -16 -3 -29 -14 -36 -34 -67 -45 -101 -39
-77 15 -120 120 -81 196 38 74 133 82 186 16 20 -24 39 -14 23 11 -27 44 -111
74 -154 56z"/>
<path d="M10497 843 c-4 -3 -7 -73 -7 -155 0 -125 2 -148 15 -148 12 0 15 14
15 70 l0 70 54 0 c62 0 82 -17 112 -96 20 -52 48 -63 34 -13 -5 18 -19 49 -30
71 l-21 40 26 20 c19 15 25 29 25 56 -1 44 -16 67 -54 82 -30 11 -159 14 -169
3z m183 -43 c50 -50 2 -100 -96 -100 l-64 0 0 60 0 60 70 0 c57 0 74 -4 90
-20z"/>
<path d="M10890 833 c-51 -26 -80 -76 -80 -135 0 -97 52 -158 135 -158 83 0
135 61 135 157 0 109 -101 182 -190 136z m125 -46 c62 -62 55 -158 -14 -204
-43 -29 -69 -29 -112 0 -69 46 -76 142 -14 204 46 46 94 46 140 0z"/>
<path d="M11628 844 c-12 -11 -10 -304 2 -304 6 0 10 30 10 70 l0 70 58 0 c68
0 83 -11 111 -86 19 -50 41 -70 41 -37 0 10 -11 42 -25 71 l-24 52 24 25 c34
33 34 83 -1 116 -22 21 -37 24 -107 27 -45 2 -85 0 -89 -4z m182 -44 c49 -49
9 -93 -91 -98 l-69 -4 0 61 0 61 70 0 c57 0 74 -4 90 -20z"/>
<path d="M11957 843 c-4 -3 -7 -73 -7 -155 l0 -148 115 0 c70 0 115 4 115 10
0 6 -40 10 -100 10 l-100 0 0 60 0 60 70 0 c40 0 70 4 70 10 0 6 -30 10 -70
10 l-70 0 0 60 0 60 100 0 c82 0 100 3 100 15 0 12 -19 15 -108 15 -60 0 -112
-3 -115 -7z"/>
</g>
</svg>
